# xmcd
#
# Track frame offsets: 
#        150
#        15787
#        30794
#        47692
#        63666
#        85415
#        103649
#        116143
#        129389
#        157190
#        167490
#        182281
#        195631
#
# Disc length: 2823 seconds
#
# Revision: 5
# Processed by: cddbd v1.5.2PL0 Copyright (c) Steve Scherf et al.
# Submitted via: ExactAudioCopy v0.99pb5
#
DISCID=9a0b050d
DTITLE=Ludwig Hirsch - Perlen
DYEAR=2002
DGENRE=Austropop
TTITLE0=Der Schnee drauﬂen schmilzt
TTITLE1=Der Sepp und ich
TTITLE2=Kinder
TTITLE3=Ich liebe Dich
TTITLE4=Heimweh
TTITLE5=Die 2
TTITLE6=Verstaucht
TTITLE7=Der Flachmann
TTITLE8=Killer
TTITLE9=Billasackerl
TTITLE10=Das Wirtshaus
TTITLE11=R‰tsel
TTITLE12=Der Schnee drauﬂen schmilzt (Remix)
EXTD=
EXTT0=
EXTT1=
EXTT2=
EXTT3=
EXTT4=
EXTT5=
EXTT6=
EXTT7=
EXTT8=
EXTT9=
EXTT10=
EXTT11=
EXTT12=
PLAYORDER=
